<svg xmlns="http://www.w3.org/2000/svg" version="1.1" xml:space="preserve" fill="#2F66F9" viewBox="0 0 100 100">
    <g transform="matrix(1.0647 0 0 1.0623 -1.5505 -.43009)">
        <path fill="none" stroke="#2F66F9" stroke-linecap="round" stroke-miterlimit="10" stroke-width="3.9686" d="m60.86 90.814c-3.9507 1.135-8.1257 1.7442-12.443 1.7442-24.839 0-44.976-20.133-44.976-44.976 0-10.787 3.7979-20.686 10.128-28.437"/>
        <path fill="none" stroke="#2F66F9" stroke-linecap="round" stroke-miterlimit="10" stroke-width="3.9686" d="m20.871 12.03c7.6117-5.9072 17.168-9.4214 27.548-9.4234 24.839 0 44.976 20.135 44.976 44.976 0 17.505-9.9988 32.671-24.597 40.102"/>
        <g transform="matrix(1.9843 0 0 1.9843 -47.657 -46.834)">
            <path d="m48.379 40.22c0.434 0 0.775 0.342 0.775 0.774v0.396c1.063 0.126 1.963 0.468 2.791 0.99 0.287 0.162 0.539 0.432 0.539 0.864 0 0.558-0.449 0.991-1.008 0.991-0.18 0-0.359-0.054-0.539-0.162-0.631-0.378-1.244-0.648-1.855-0.792v3.457c2.736 0.684 3.906 1.783 3.906 3.709 0 1.98-1.547 3.295-3.834 3.511v1.08c0 0.433-0.342 0.774-0.775 0.774-0.432 0-0.791-0.342-0.791-0.774v-1.116c-1.352-0.145-2.594-0.63-3.691-1.404-0.307-0.198-0.486-0.486-0.486-0.864 0-0.558 0.432-0.99 0.99-0.99 0.217 0 0.432 0.071 0.594 0.198 0.848 0.611 1.676 1.025 2.666 1.206v-3.547c-2.629-0.685-3.854-1.675-3.854-3.709 0-1.927 1.529-3.259 3.781-3.439v-0.378c0-0.433 0.359-0.775 0.791-0.775zm-0.719 6.14v-3.187c-1.152 0.108-1.729 0.72-1.729 1.512 1e-3 0.756 0.342 1.225 1.729 1.675zm1.422 2.502v3.277c1.152-0.126 1.783-0.702 1.783-1.566 0-0.792-0.396-1.278-1.783-1.711z"/>
        </g>
    </g>
</svg>
